<svg width="645" height="190" viewBox="0 0 645 190" fill="none" xmlns="http://www.w3.org/2000/svg">
<g clip-path="url(#clip0_0_1)">
<path d="M377.455 140.383H377.955V139.883V119.106C377.955 115.776 378.909 113.283 380.755 111.55L380.761 111.544C382.633 109.721 384.953 108.806 387.755 108.806C390.538 108.806 392.544 109.651 393.869 111.271C395.21 112.91 395.923 115.424 395.923 118.9V139.883V140.383H396.423H404.48H404.98V139.883V116.431C404.98 111.408 403.664 107.462 400.964 104.667C398.269 101.877 394.628 100.503 390.1 100.503C387.36 100.503 384.792 101.212 382.406 102.627C380.575 103.66 379.089 105.008 377.955 106.668V86.5V86H377.455H369.5H369V86.5V139.883V140.383H369.5H377.455ZM447.728 124.749H448.228V124.249V118.694C448.228 113.224 446.414 108.797 442.761 105.468C439.124 102.152 434.58 100.503 429.167 100.503C423.736 100.503 419.09 102.369 415.255 106.096C411.407 109.836 409.495 114.702 409.495 120.649C409.495 126.725 411.369 131.661 415.15 135.404C418.92 139.136 423.604 141 429.167 141C435.883 141 441.357 138.795 445.542 134.363L445.86 134.026L445.548 133.683L440.959 128.643L440.562 128.207L440.196 128.67C437.935 131.537 434.496 133.006 429.779 133.006C426.82 133.006 424.24 132.179 422.02 130.533C419.973 129.015 418.811 127.094 418.503 124.749H447.728ZM436.474 110.934L436.48 110.939C438.225 112.517 439.163 114.644 439.264 117.371H418.461C418.58 114.801 419.633 112.708 421.63 111.059C423.849 109.283 426.422 108.394 429.371 108.394C432.327 108.394 434.679 109.252 436.474 110.934ZM501.833 140.383H502.333V139.883V113.191V86.5V86H501.833H493.878H493.378V86.5V139.883V140.383H493.878H501.833ZM521.46 127.54V108.6H530.954H531.454V108.1V101.62V101.12H530.954H521.46V89.5857V89.0857H520.96H513.006H512.506V89.5857V101.12H508.213H507.713V101.62V108.1V108.6H508.213H512.506V127.334C512.506 131.353 513.733 134.672 516.215 137.247L516.22 137.252C518.696 139.749 521.749 141 525.345 141C528.817 141 532.025 139.674 534.958 137.068L535.26 136.8L535.061 136.448L531.797 130.688L531.472 130.114L531.007 130.582C529.351 132.252 527.84 133.006 526.467 133.006C524.883 133.006 523.663 132.532 522.755 131.623C521.909 130.64 521.46 129.298 521.46 127.54ZM547.475 140.383H547.975V139.883V119.106C547.975 115.776 548.93 113.283 550.775 111.55L550.782 111.544C552.654 109.721 554.973 108.806 557.776 108.806C560.558 108.806 562.565 109.651 563.89 111.271C565.231 112.91 565.944 115.424 565.944 118.9V139.883V140.383H566.444H574.5H575V139.883V116.431C575 111.408 573.685 107.462 570.985 104.667C568.289 101.877 564.648 100.503 560.121 100.503C557.38 100.503 554.813 101.212 552.426 102.627C550.595 103.66 549.11 105.008 547.975 106.668V86.5V86H547.475H539.521H539.021V86.5V139.883V140.383H539.521H547.475ZM487.021 102.468V101.994L486.547 101.969L478.423 101.544L477.897 101.517V102.044V103.155C476.121 101.737 473.599 101.254 471.264 101.185C468.483 101.103 465.804 101.604 464.559 101.991C462.644 102.586 461.365 103.141 460.348 103.754C459.329 104.367 458.591 105.027 457.763 105.795C455.136 108.23 453.846 111.368 453.156 115.543L453.149 115.584V115.625C453.149 117.23 453.152 118.992 453.363 120.675C453.575 122.357 453.999 124.003 454.871 125.368C455.377 126.16 455.972 126.891 456.555 127.586C457.754 129.013 460.296 131.35 464.589 132.221L467.436 133.042L467.469 133.051L467.503 133.056L473.237 133.882L473.273 133.888H473.309H477.897V139.883V140.383H478.397H486.521H487.021V139.883V139.881V139.878V139.877V139.874V139.872V139.87V139.868V139.865V139.863V139.86V139.857V139.854V139.85V139.847V139.843V139.839V139.835V139.831V139.827V139.822V139.818V139.813V139.808V139.803V139.797V139.792V139.786V139.78V139.774V139.768V139.762V139.755V139.749V139.742V139.735V139.728V139.72V139.713V139.705V139.697V139.689V139.681V139.673V139.665V139.656V139.647V139.638V139.629V139.62V139.611V139.601V139.591V139.582V139.572V139.561V139.551V139.541V139.53V139.519V139.508V139.497V139.486V139.475V139.463V139.452V139.44V139.428V139.416V139.403V139.391V139.379V139.366V139.353V139.34V139.327V139.314V139.3V139.287V139.273V139.259V139.245V139.231V139.217V139.203V139.188V139.174V139.159V139.144V139.129V139.114V139.098V139.083V139.067V139.052V139.036V139.02V139.004V138.987V138.971V138.954V138.938V138.921V138.904V138.887V138.87V138.853V138.835V138.818V138.8V138.782V138.764V138.746V138.728V138.71V138.692V138.673V138.654V138.636V138.617V138.598V138.579V138.559V138.54V138.521V138.501V138.481V138.461V138.441V138.421V138.401V138.381V138.36V138.34V138.319V138.299V138.278V138.257V138.236V138.214V138.193V138.172V138.15V138.129V138.107V138.085V138.063V138.041V138.019V137.997V137.974V137.952V137.929V137.906V137.884V137.861V137.838V137.815V137.791V137.768V137.745V137.721V137.698V137.674V137.65V137.626V137.602V137.578V137.554V137.53V137.505V137.481V137.456V137.432V137.407V137.382V137.357V137.332V137.307V137.282V137.257V137.231V137.206V137.18V137.154V137.129V137.103V137.077V137.051V137.025V136.999V136.973V136.946V136.92V136.893V136.867V136.84V136.813V136.787V136.76V136.733V136.706V136.678V136.651V136.624V136.597V136.569V136.542V136.514V136.486V136.458V136.431V136.403V136.375V136.347V136.319V136.29V136.262V136.234V136.205V136.177V136.148V136.12V136.091V136.062V136.034V136.005V135.976V135.947V135.918V135.888V135.859V135.83V135.801V135.771V135.742V135.712V135.683V135.653V135.623V135.594V135.564V135.534V135.504V135.474V135.444V135.414V135.384V135.353V135.323V135.293V135.262V135.232V135.201V135.171V135.14V135.11V135.079V135.048V135.017V134.987V134.956V134.925V134.894V134.863V134.832V134.8V134.769V134.738V134.707V134.675V134.644V134.613V134.581V134.55V134.518V134.487V134.455V134.423V134.392V134.36V134.328V134.296V134.264V134.233V134.201V134.169V134.137V134.105V134.073V134.04V134.008V133.976V133.944V133.912V133.879V133.847V133.815V133.782V133.75V133.718V133.685V133.653V133.62V133.588V133.555V133.522V133.49V133.457V133.424V133.392V133.359V133.326V133.294V133.261V133.228V133.195V133.162V133.129V133.097V133.064V133.031V132.998V132.965V132.932V132.899V132.866V132.833V132.8V132.767V132.734V132.701V132.667V132.634V132.601V132.568V132.535V132.502V132.469V132.435V132.402V132.369V132.336V132.303V132.269V132.236V132.203V132.17V132.136V132.103V132.07V132.037V132.003V131.97V131.937V131.904V131.87V131.837V131.804V131.77V131.737V131.704V131.671V131.637V131.604V131.571V131.538V131.504V131.471V131.438V131.405V131.371V131.338V131.305V131.272V131.239V131.205V131.172V131.139V131.106V131.073V131.04V131.006V130.973V130.94V130.907V130.874V130.841V130.808V130.775V130.742V130.709V130.676V130.643V130.61V130.577V130.544V130.511V130.478V130.446V130.413V130.38V130.347V130.314V130.282V130.249V130.216V130.184V130.151V130.118V130.086V130.053V130.021V129.988V129.956V129.923V129.891V129.858V129.826V129.794V129.761V129.729V129.697V129.665V129.632V129.6V129.568V129.536V129.504V129.472V129.44V129.408V129.376V129.344V129.313V129.281V129.249V129.217V129.186V129.154V129.123V129.091V129.059V129.028V128.997V128.965V128.934V128.903V128.871V128.84V128.809V128.778V128.747V128.716V128.685V128.654V128.623V128.592V128.562V128.531V128.5V128.47V128.439V128.409V128.378V128.348V128.317V128.287V128.257V128.227V128.197V128.167V128.137V128.107V128.077V128.047V128.017V127.987V127.958V127.928V127.899V127.869V127.84V127.81V127.781V127.752V127.723V127.694V127.665V127.636V127.607V127.578V127.549V127.521V127.492V127.463V127.435V127.407V127.378V127.35V127.322V127.294V127.266V127.238V127.21V127.182V127.154V102.468ZM466.5 123.121C464.736 122.13 463.95 121.342 463.566 120.478C463.172 119.591 463.16 118.552 463.16 116.905C463.26 116.291 463.287 115.917 463.294 115.657C463.296 115.572 463.296 115.49 463.296 115.429C463.296 115.404 463.296 115.382 463.296 115.366C463.297 115.301 463.3 115.276 463.304 115.257C463.312 115.214 463.338 115.135 463.501 114.84C463.588 114.681 463.703 114.479 463.859 114.208C463.981 113.994 464.129 113.735 464.308 113.42C464.899 112.628 465.268 112.267 465.563 112.054C465.775 111.902 465.942 111.825 466.171 111.718C466.285 111.666 466.414 111.606 466.571 111.527C467.294 111.162 468.884 110.754 471.261 110.754C471.474 110.754 471.694 110.753 471.917 110.752C473.22 110.746 474.648 110.739 475.819 110.942C476.503 111.061 477.04 111.243 477.395 111.497C477.724 111.732 477.897 112.024 477.897 112.445V124.626H472.94L469.124 123.997C468.193 123.844 467.297 123.569 466.5 123.121Z" fill="black" stroke="#0047FF"/>
<path d="M377.455 140.383H377.955V139.883V119.106C377.955 115.776 378.909 113.283 380.755 111.55L380.761 111.544C382.633 109.721 384.953 108.806 387.755 108.806C390.538 108.806 392.544 109.651 393.869 111.271C395.21 112.91 395.923 115.424 395.923 118.9V139.883V140.383H396.423H404.48H404.98V139.883V116.431C404.98 111.408 403.664 107.462 400.964 104.667C398.269 101.877 394.628 100.503 390.1 100.503C387.36 100.503 384.792 101.212 382.406 102.627C380.575 103.66 379.089 105.008 377.955 106.668V86.5V86H377.455H369.5H369V86.5V139.883V140.383H369.5H377.455ZM447.728 124.749H448.228V124.249V118.694C448.228 113.224 446.414 108.797 442.761 105.468C439.124 102.152 434.58 100.503 429.167 100.503C423.736 100.503 419.09 102.369 415.255 106.096C411.407 109.836 409.495 114.702 409.495 120.649C409.495 126.725 411.369 131.661 415.15 135.404C418.92 139.136 423.604 141 429.167 141C435.883 141 441.357 138.795 445.542 134.363L445.86 134.026L445.548 133.683L440.959 128.643L440.562 128.207L440.196 128.67C437.935 131.537 434.496 133.006 429.779 133.006C426.82 133.006 424.24 132.179 422.02 130.533C419.973 129.015 418.811 127.094 418.503 124.749H447.728ZM436.474 110.934L436.48 110.939C438.225 112.517 439.163 114.644 439.264 117.371H418.461C418.58 114.801 419.633 112.708 421.63 111.059C423.849 109.283 426.422 108.394 429.371 108.394C432.327 108.394 434.679 109.252 436.474 110.934ZM501.833 140.383H502.333V139.883V113.191V86.5V86H501.833H493.878H493.378V86.5V139.883V140.383H493.878H501.833ZM521.46 127.54V108.6H530.954H531.454V108.1V101.62V101.12H530.954H521.46V89.5857V89.0857H520.96H513.006H512.506V89.5857V101.12H508.213H507.713V101.62V108.1V108.6H508.213H512.506V127.334C512.506 131.353 513.733 134.672 516.215 137.247L516.22 137.252C518.696 139.749 521.749 141 525.345 141C528.817 141 532.025 139.674 534.958 137.068L535.26 136.8L535.061 136.448L531.797 130.688L531.472 130.114L531.007 130.582C529.351 132.252 527.84 133.006 526.467 133.006C524.883 133.006 523.663 132.532 522.755 131.623C521.909 130.64 521.46 129.298 521.46 127.54ZM547.475 140.383H547.975V139.883V119.106C547.975 115.776 548.93 113.283 550.775 111.55L550.782 111.544C552.654 109.721 554.973 108.806 557.776 108.806C560.558 108.806 562.565 109.651 563.89 111.271C565.231 112.91 565.944 115.424 565.944 118.9V139.883V140.383H566.444H574.5H575V139.883V116.431C575 111.408 573.685 107.462 570.985 104.667C568.289 101.877 564.648 100.503 560.121 100.503C557.38 100.503 554.813 101.212 552.426 102.627C550.595 103.66 549.11 105.008 547.975 106.668V86.5V86H547.475H539.521H539.021V86.5V139.883V140.383H539.521H547.475ZM487.021 102.468V101.994L486.547 101.969L478.423 101.544L477.897 101.517V102.044V103.155C476.121 101.737 473.599 101.254 471.264 101.185C468.483 101.103 465.804 101.604 464.559 101.991C462.644 102.586 461.365 103.141 460.348 103.754C459.329 104.367 458.591 105.027 457.763 105.795C455.136 108.23 453.846 111.368 453.156 115.543L453.149 115.584V115.625C453.149 117.23 453.152 118.992 453.363 120.675C453.575 122.357 453.999 124.003 454.871 125.368C455.377 126.16 455.972 126.891 456.555 127.586C457.754 129.013 460.296 131.35 464.589 132.221L467.436 133.042L467.469 133.051L467.503 133.056L473.237 133.882L473.273 133.888H473.309H477.897V139.883V140.383H478.397H486.521H487.021V139.883V139.881V139.878V139.877V139.874V139.872V139.87V139.868V139.865V139.863V139.86V139.857V139.854V139.85V139.847V139.843V139.839V139.835V139.831V139.827V139.822V139.818V139.813V139.808V139.803V139.797V139.792V139.786V139.78V139.774V139.768V139.762V139.755V139.749V139.742V139.735V139.728V139.72V139.713V139.705V139.697V139.689V139.681V139.673V139.665V139.656V139.647V139.638V139.629V139.62V139.611V139.601V139.591V139.582V139.572V139.561V139.551V139.541V139.53V139.519V139.508V139.497V139.486V139.475V139.463V139.452V139.44V139.428V139.416V139.403V139.391V139.379V139.366V139.353V139.34V139.327V139.314V139.3V139.287V139.273V139.259V139.245V139.231V139.217V139.203V139.188V139.174V139.159V139.144V139.129V139.114V139.098V139.083V139.067V139.052V139.036V139.02V139.004V138.987V138.971V138.954V138.938V138.921V138.904V138.887V138.87V138.853V138.835V138.818V138.8V138.782V138.764V138.746V138.728V138.71V138.692V138.673V138.654V138.636V138.617V138.598V138.579V138.559V138.54V138.521V138.501V138.481V138.461V138.441V138.421V138.401V138.381V138.36V138.34V138.319V138.299V138.278V138.257V138.236V138.214V138.193V138.172V138.15V138.129V138.107V138.085V138.063V138.041V138.019V137.997V137.974V137.952V137.929V137.906V137.884V137.861V137.838V137.815V137.791V137.768V137.745V137.721V137.698V137.674V137.65V137.626V137.602V137.578V137.554V137.53V137.505V137.481V137.456V137.432V137.407V137.382V137.357V137.332V137.307V137.282V137.257V137.231V137.206V137.18V137.154V137.129V137.103V137.077V137.051V137.025V136.999V136.973V136.946V136.92V136.893V136.867V136.84V136.813V136.787V136.76V136.733V136.706V136.678V136.651V136.624V136.597V136.569V136.542V136.514V136.486V136.458V136.431V136.403V136.375V136.347V136.319V136.29V136.262V136.234V136.205V136.177V136.148V136.12V136.091V136.062V136.034V136.005V135.976V135.947V135.918V135.888V135.859V135.83V135.801V135.771V135.742V135.712V135.683V135.653V135.623V135.594V135.564V135.534V135.504V135.474V135.444V135.414V135.384V135.353V135.323V135.293V135.262V135.232V135.201V135.171V135.14V135.11V135.079V135.048V135.017V134.987V134.956V134.925V134.894V134.863V134.832V134.8V134.769V134.738V134.707V134.675V134.644V134.613V134.581V134.55V134.518V134.487V134.455V134.423V134.392V134.36V134.328V134.296V134.264V134.233V134.201V134.169V134.137V134.105V134.073V134.04V134.008V133.976V133.944V133.912V133.879V133.847V133.815V133.782V133.75V133.718V133.685V133.653V133.62V133.588V133.555V133.522V133.49V133.457V133.424V133.392V133.359V133.326V133.294V133.261V133.228V133.195V133.162V133.129V133.097V133.064V133.031V132.998V132.965V132.932V132.899V132.866V132.833V132.8V132.767V132.734V132.701V132.667V132.634V132.601V132.568V132.535V132.502V132.469V132.435V132.402V132.369V132.336V132.303V132.269V132.236V132.203V132.17V132.136V132.103V132.07V132.037V132.003V131.97V131.937V131.904V131.87V131.837V131.804V131.77V131.737V131.704V131.671V131.637V131.604V131.571V131.538V131.504V131.471V131.438V131.405V131.371V131.338V131.305V131.272V131.239V131.205V131.172V131.139V131.106V131.073V131.04V131.006V130.973V130.94V130.907V130.874V130.841V130.808V130.775V130.742V130.709V130.676V130.643V130.61V130.577V130.544V130.511V130.478V130.446V130.413V130.38V130.347V130.314V130.282V130.249V130.216V130.184V130.151V130.118V130.086V130.053V130.021V129.988V129.956V129.923V129.891V129.858V129.826V129.794V129.761V129.729V129.697V129.665V129.632V129.6V129.568V129.536V129.504V129.472V129.44V129.408V129.376V129.344V129.313V129.281V129.249V129.217V129.186V129.154V129.123V129.091V129.059V129.028V128.997V128.965V128.934V128.903V128.871V128.84V128.809V128.778V128.747V128.716V128.685V128.654V128.623V128.592V128.562V128.531V128.5V128.47V128.439V128.409V128.378V128.348V128.317V128.287V128.257V128.227V128.197V128.167V128.137V128.107V128.077V128.047V128.017V127.987V127.958V127.928V127.899V127.869V127.84V127.81V127.781V127.752V127.723V127.694V127.665V127.636V127.607V127.578V127.549V127.521V127.492V127.463V127.435V127.407V127.378V127.35V127.322V127.294V127.266V127.238V127.21V127.182V127.154V102.468ZM466.5 123.121C464.736 122.13 463.95 121.342 463.566 120.478C463.172 119.591 463.16 118.552 463.16 116.905C463.26 116.291 463.287 115.917 463.294 115.657C463.296 115.572 463.296 115.49 463.296 115.429C463.296 115.404 463.296 115.382 463.296 115.366C463.297 115.301 463.3 115.276 463.304 115.257C463.312 115.214 463.338 115.135 463.501 114.84C463.588 114.681 463.703 114.479 463.859 114.208C463.981 113.994 464.129 113.735 464.308 113.42C464.899 112.628 465.268 112.267 465.563 112.054C465.775 111.902 465.942 111.825 466.171 111.718C466.285 111.666 466.414 111.606 466.571 111.527C467.294 111.162 468.884 110.754 471.261 110.754C471.474 110.754 471.694 110.753 471.917 110.752C473.22 110.746 474.648 110.739 475.819 110.942C476.503 111.061 477.04 111.243 477.395 111.497C477.724 111.732 477.897 112.024 477.897 112.445V124.626H472.94L469.124 123.997C468.193 123.844 467.297 123.569 466.5 123.121Z" fill="black" stroke="black"/>
<path d="M203.276 121.329L203.28 121.326C206.958 118.334 208.754 113.73 208.754 107.623C208.754 101.452 206.961 96.8136 203.285 93.8212C199.693 90.7747 194.093 89.3017 186.589 89.3017H169.5H169V89.8017V139.885V140.385H169.5H177.943H178.443V139.885V125.637H186.69C194.061 125.637 199.621 124.231 203.276 121.329ZM196.623 114.632L196.616 114.638C194.998 116.205 192.048 117.058 187.606 117.058H178.443V97.9832H186.385C191.036 97.9832 194.301 98.7003 196.275 100.047C198.196 101.358 199.21 103.595 199.21 106.906C199.21 110.52 198.312 113.056 196.623 114.632ZM222.757 140.385H223.257V139.885V123.498C223.257 119.132 224.258 115.774 226.198 113.365C228.119 110.979 230.912 109.762 234.658 109.762H235.065H235.571L235.565 109.255L235.463 101.164L235.457 100.656L234.949 100.671C234.763 100.676 234.58 100.68 234.399 100.685C232.192 100.738 230.258 100.784 226.759 102.164L226.748 102.168L226.737 102.173C224.935 102.988 224.376 103.332 223.257 104.135V101.785V101.285H222.757H214.823H214.323V101.785V139.885V140.385H214.823H222.757ZM250.31 140.385H250.81V139.885V101.785V101.285H250.31H242.376H241.876V101.785V139.885V140.385H242.376H250.31ZM265.106 140.385H265.606V139.885V119.196C265.606 115.881 266.557 113.4 268.397 111.675L268.404 111.669C270.271 109.854 272.584 108.942 275.379 108.942C277.981 108.942 279.812 109.755 280.981 111.304C282.172 112.882 282.813 115.413 282.813 118.992V139.885V140.385H283.313H291.348H291.848V139.885V118.69C291.915 115.584 292.863 113.234 294.64 111.573C296.508 109.821 298.791 108.942 301.52 108.942C304.332 108.942 306.358 109.785 307.696 111.399C309.049 113.03 309.768 115.532 309.768 118.992V139.885V140.385H310.268H318.202H318.702V139.885V116.534C318.702 111.531 317.389 107.601 314.696 104.817C312.009 102.04 308.412 100.67 303.961 100.67C298.414 100.67 293.766 103.029 290.037 107.685C288.966 105.486 287.475 103.788 285.558 102.613C283.426 101.308 280.804 100.67 277.718 100.67C274.985 100.67 272.423 101.377 270.043 102.786C268.218 103.814 266.737 105.155 265.606 106.806V101.785V101.285H265.106H257.172H256.672V101.785V139.885V140.385H257.172H265.106ZM361.5 124.818H362V124.318V118.787C362 113.338 360.191 108.93 356.548 105.614C352.919 102.312 348.387 100.67 342.988 100.67C337.571 100.67 332.936 102.529 329.111 106.24C325.273 109.964 323.365 114.811 323.365 120.733C323.365 126.784 325.235 131.7 329.007 135.427C332.767 139.144 337.439 141 342.988 141C349.686 141 355.147 138.804 359.321 134.391L359.64 134.054L359.327 133.711L354.75 128.692L354.353 128.257L353.988 128.719C351.733 131.573 348.303 133.035 343.598 133.035C340.647 133.035 338.074 132.212 335.86 130.573C333.82 129.062 332.66 127.151 332.353 124.818H361.5ZM350.275 111.061L350.282 111.067C352.021 112.637 352.956 114.753 353.057 117.467H332.311C332.43 114.91 333.48 112.828 335.471 111.187C337.684 109.418 340.25 108.533 343.191 108.533C346.14 108.533 348.485 109.387 350.275 111.061ZM242.428 86.684C241.384 87.735 240.859 89.023 240.859 90.5186C240.859 92.0804 241.417 93.4045 242.53 94.4559C243.574 95.576 244.89 96.1397 246.445 96.1397C247.933 96.1397 249.214 95.6093 250.258 94.5581C251.367 93.4409 251.929 92.0855 251.929 90.5186C251.929 89.0173 251.365 87.7297 250.258 86.6838C249.219 85.5693 247.939 85 246.445 85C244.885 85 243.538 85.5667 242.428 86.684Z" fill="black" stroke="black"/>
</g>
<path fill-rule="evenodd" clip-rule="evenodd" d="M16.161 115.15L11.3139 120.003C3.9004 127.863 -0.156623 138.303 0.00462918 149.106C0.165882 159.91 4.5327 170.224 12.1774 177.859C19.8222 185.494 30.1424 189.848 40.9457 189.995C51.749 190.142 62.1841 186.072 70.0343 178.648L74.6383 174.044L79.2424 178.573C87.0925 185.996 97.5276 190.067 108.331 189.919C119.134 189.772 129.454 185.419 137.099 177.784C144.744 170.149 149.111 159.834 149.272 149.031C149.433 138.228 145.376 127.788 137.963 119.928L133.251 115.216L74.739 173.728L16.161 115.15Z" fill="black"/>
<path fill-rule="evenodd" clip-rule="evenodd" d="M70.0362 51.426L74.6403 55.9546L79.2443 51.3505C87.0944 43.927 97.5296 39.8565 108.333 40.0039C119.136 40.1512 129.456 44.5048 137.101 52.1397C144.746 59.7746 149.113 70.0892 149.274 80.8923C149.435 91.6954 145.378 102.136 137.965 109.995L133.194 114.772L74.738 56.3163L16.1496 114.905L11.3158 110.071C3.90236 102.211 -0.154669 91.7709 0.00658225 80.9678C0.167834 70.1647 4.53466 59.8501 12.1794 52.2152C19.8241 44.5803 30.1443 40.2267 40.9477 40.0793C51.751 39.932 62.1861 44.0024 70.0362 51.426Z" fill="black"/>
<path fill-rule="evenodd" clip-rule="evenodd" d="M77.4851 111.471L73.0297 120.727L61.4455 94L52.0891 110.482L16 115.159L19.99 120.207H56.099L60.1089 111.471L72.3101 143L83.2772 119.434L94.5459 120.602C95.7455 121.519 97.2448 122.064 98.8713 122.064C102.808 122.064 106 118.873 106 114.936C106 111 102.808 107.809 98.8713 107.809C97.0455 107.809 95.38 108.495 94.1188 109.624L77.4851 111.471ZM99.7624 117.609C101.239 117.609 102.436 116.413 102.436 114.936C102.436 113.46 101.239 112.264 99.7624 112.264C98.286 112.264 97.0891 113.46 97.0891 114.936C97.0891 116.413 98.286 117.609 99.7624 117.609Z" fill="black"/>
<path d="M613.861 130.909V160H608.548L595.892 141.69H595.679V160H589.528V130.909H594.926L607.483 149.205H607.739V130.909H613.861ZM638.232 140.312C638.033 139.621 637.754 139.01 637.394 138.48C637.034 137.94 636.594 137.486 636.073 137.116C635.562 136.738 634.975 136.449 634.312 136.25C633.658 136.051 632.934 135.952 632.138 135.952C630.652 135.952 629.345 136.321 628.218 137.06C627.101 137.798 626.229 138.873 625.604 140.284C624.979 141.686 624.667 143.4 624.667 145.426C624.667 147.453 624.975 149.176 625.59 150.597C626.206 152.017 627.077 153.101 628.204 153.849C629.331 154.588 630.661 154.957 632.195 154.957C633.587 154.957 634.776 154.711 635.761 154.219C636.755 153.717 637.513 153.011 638.033 152.102C638.564 151.193 638.829 150.118 638.829 148.878L640.079 149.062H632.579V144.432H644.752V148.097C644.752 150.653 644.212 152.85 643.133 154.688C642.053 156.515 640.567 157.926 638.673 158.92C636.779 159.905 634.61 160.398 632.167 160.398C629.44 160.398 627.044 159.796 624.979 158.594C622.915 157.382 621.305 155.663 620.15 153.438C619.004 151.203 618.431 148.551 618.431 145.483C618.431 143.125 618.772 141.023 619.454 139.176C620.145 137.32 621.111 135.748 622.352 134.46C623.592 133.172 625.036 132.192 626.684 131.52C628.332 130.848 630.117 130.511 632.039 130.511C633.687 130.511 635.221 130.753 636.641 131.236C638.062 131.709 639.321 132.382 640.42 133.253C641.528 134.124 642.432 135.161 643.133 136.364C643.834 137.557 644.283 138.873 644.482 140.312H638.232Z" fill="#222020"/>
<defs>
<clipPath id="clip0_0_1">
<rect width="406" height="150" fill="white" transform="translate(169)"/>
</clipPath>
</defs>
</svg>
